<svg width="144" height="57" viewBox="0 0 144 57" fill="none" xmlns="http://www.w3.org/2000/svg">
<path d="M140.48 26.9363C140.48 26 141.25 25.2297 142.186 25.2297C143.123 25.2297 143.893 26 143.893 26.9363C143.893 27.8725 143.123 28.6428 142.186 28.6428C141.25 28.6428 140.48 27.8788 140.48 26.9363ZM142.186 28.3892C142.985 28.3892 143.639 27.7348 143.639 26.9363C143.639 26.1378 142.985 25.4833 142.186 25.4833C141.388 25.4833 140.733 26.1378 140.733 26.9363C140.733 27.7348 141.388 28.3892 142.186 28.3892ZM141.538 25.9906H142.142C142.484 25.9906 142.875 26.0501 142.875 26.573C142.875 26.8924 142.678 26.9582 142.562 27.0177L142.897 27.7943H142.534L142.249 27.0678H141.864V27.7943H141.538V25.9906ZM141.864 26.7766H142.255C142.409 26.7766 142.531 26.7045 142.531 26.5448C142.531 26.3851 142.421 26.3037 142.227 26.3037H141.864V26.7766Z" fill="white"/>
<path d="M67.366 48.2955H72.2321V28.1077H67.366V48.2955ZM67.8513 20.5674C67.5257 20.5674 67.366 20.8931 67.366 21.0528V25.4304H72.2321V21.0528C72.2321 20.8085 72.1507 20.5674 71.7467 20.5674H67.8545H67.8513ZM54.2299 20.5674C53.826 20.5674 53.7446 20.8117 53.7446 21.0528V24.9451C53.7446 29.5669 53.2592 36.3776 47.6634 43.4294L44.5008 21.2156C44.4194 20.8117 44.338 20.5674 43.8526 20.5674H39.1493C38.6639 20.5674 38.6639 20.8931 38.6639 21.0528C38.3383 31.8372 33.3938 46.4292 21.6387 48.6181C22.0427 48.6181 22.4497 48.6995 22.8537 48.6995C30.2312 48.6995 38.2568 43.7551 40.6085 34.1857L42.5531 48.9406C37.9312 51.2922 32.9053 52.4258 28.0392 52.4258C16.8509 52.4258 6.06646 46.2633 0.714966 34.1825C4.11875 48.9375 16.281 56.4777 28.3617 56.4777C40.4425 56.4777 52.0348 49.1003 55.1975 34.1825C55.1975 34.1825 57.3863 47.8039 57.3863 48.2893H63.9528L59.3309 21.0465C59.2495 20.7209 59.1681 20.5612 58.7641 20.5612H54.2237L54.2299 20.5674ZM4.61038 32C4.93604 15.7044 18.069 6.13504 31.609 6.13504C40.1231 6.13504 48.797 9.86447 54.4742 18.1344C49.8523 6.05362 39.4749 0.620728 29.179 0.620728C15.7204 0.620728 2.42469 10.0242 2.42469 26.4043C2.42469 30.0523 3.39854 33.9446 5.34312 37.3483C4.85776 35.6449 4.61351 33.7003 4.61351 31.9969L4.61038 32ZM123.793 33.7034L125.738 34.433C127.097 32.191 128.982 31.189 131.252 31.189C133.685 31.189 135.955 32.7296 135.955 35.5666V35.8923C134.496 35.5666 133.118 35.3255 131.74 35.3255C126.956 35.3255 123.308 37.6771 123.308 42.7029C123.308 46.4324 126.874 48.6212 130.441 48.6212C132.467 48.6212 134.574 47.8916 135.955 46.351V48.2955H140.333V34.9184C140.333 30.5408 136.603 27.7852 132.63 27.7852C128.982 27.7852 125.089 29.7298 123.793 33.7034ZM135.955 43.9179C134.822 44.6475 133.2 45.1329 131.659 45.1329C129.552 45.1329 127.685 44.2404 127.685 41.9702C127.685 39.3743 129.793 38.0779 132.389 38.0779C133.522 38.0779 134.74 38.3222 135.955 38.8075V43.9148V43.9179ZM119.901 39.0518C119.901 32.4853 116.416 27.7821 110.253 27.7821C104.091 27.7821 99.9572 32.4853 99.9572 38.0779C99.9572 44.7258 105.39 48.5366 110.66 48.5366C114.471 48.5366 118.119 46.5921 119.66 42.2113L117.956 41.4817C116.741 43.2666 114.145 44.3187 111.553 44.3187C108.471 44.3187 105.471 42.7781 105.068 39.0487H119.904L119.901 39.0518ZM105.064 36.1334C105.55 33.0521 107.901 31.4301 110.253 31.4301C112.605 31.4301 114.875 32.9707 115.279 36.1334H105.064ZM91.9284 20.5674C91.443 20.5674 91.443 20.8931 91.443 21.0528V29.3227C89.6581 28.2674 87.7136 27.7821 85.769 27.7821C80.8246 27.7821 76.1213 31.1858 76.1213 38.3222C76.1213 45.4585 80.5803 48.6181 84.8765 48.6181C87.4724 48.6181 89.9838 47.4845 91.443 45.6182V48.2924H96.3091V21.0497C96.3091 20.724 96.1463 20.5643 95.8238 20.5643H91.9315L91.9284 20.5674ZM91.443 42.4587C89.9838 43.7551 88.3617 44.325 86.8211 44.325C83.9027 44.325 81.4696 42.1362 81.4696 37.84C81.4696 33.5437 84.2252 31.7589 87.0654 31.7589C88.6874 31.7589 90.3909 32.4071 91.443 33.4623V42.4618V42.4587Z" fill="white"/>
</svg>
